<?xml version="1.0" encoding="utf-8"?>
<!-- Generator: Adobe Illustrator 25.2.2, SVG Export Plug-In . SVG Version: 6.00 Build 0)  -->
<svg version="1.1" id="Calque_2" xmlns="http://www.w3.org/2000/svg" xmlns:xlink="http://www.w3.org/1999/xlink" x="0px" y="0px"
	 viewBox="0 0 286.5 356.4" style="enable-background:new 0 0 286.5 356.4;" xml:space="preserve">
<style type="text/css">
	.st0{fill:#007758;}
	.st1{fill:#C7D300;}
	.st2{fill:#FFFFFF;}
</style>
<g>
	<circle class="st0" cx="143.3" cy="67.9" r="67.9"/>
	<path class="st1" d="M211.1,69.8c-1,36.6-31,65.9-67.8,65.9c-36.8,0-66.8-29.3-67.8-65.9H0v286.5h286.5V69.8H211.1z"/>
	<g>
		<path class="st2" d="M143.3,115.1c-26,0-47.2-21.2-47.2-47.2c0-26,21.2-47.2,47.2-47.2c16.9,0,32.6,9.1,41,23.9L173,51
			c-6.1-10.7-17.5-17.3-29.7-17.3c-18.8,0-34.2,15.3-34.2,34.2s15.3,34.2,34.2,34.2c12.4,0,23.8-6.7,29.9-17.6l11.4,6.3
			C176.2,105.8,160.4,115.1,143.3,115.1z"/>
		<rect x="140.7" y="61.4" class="st2" width="49.9" height="13"/>
	</g>
	<path class="st0" d="M95.6,211.3H57.5v10h28c-2.4,12.7-13.8,22.3-27.2,22.3c-15.3,0-27.7-12.2-27.7-27.3c0-15,12.4-27.3,27.7-27.3
		c6.3,0,12.2,2,17.1,5.9l6.2-7.9c-6.7-5.2-14.8-8-23.3-8c-20.8,0-37.7,16.7-37.7,37.3c0,20.5,16.9,37.3,37.7,37.3
		c18.9,0,34.8-14,37.3-32.3V211.3z"/>
	<path class="st0" d="M266.8,211.3h-38.1v10h28c-2.4,12.7-13.7,22.3-27.2,22.3c-15.3,0-27.7-12.2-27.7-27.3
		c0-15,12.4-27.3,27.7-27.3c6.3,0,12.2,2,17.1,5.9l6.2-7.9c-6.7-5.2-14.8-8-23.3-8c-20.8,0-37.7,16.7-37.7,37.3
		c0,20.5,16.9,37.3,37.7,37.3c18.9,0,34.8-14,37.3-32.3V211.3z"/>
	<path class="st0" d="M181.2,221.3v-10c-2.5-18.3-18.4-32.3-37.3-32.3c-20.8,0-37.7,16.7-37.7,37.3c0,20.5,16.9,37.3,37.7,37.3
		c8.5,0,16.6-2.8,23.3-8l-6.2-7.9c-4.9,3.8-10.8,5.9-17.1,5.9c-13.5,0-24.8-9.6-27.2-22.3h26.4v0H181.2z M116.7,211.3
		c2.4-12.7,13.7-22.3,27.2-22.3c13.4,0,24.8,9.5,27.2,22.3H116.7z"/>
</g>
</svg>
