<svg xmlns="http://www.w3.org/2000/svg" xmlns:xlink="http://www.w3.org/1999/xlink" width="168.821" height="54.83" viewBox="0 0 168.821 54.83">
  <defs>
    <linearGradient id="linear-gradient" x1="0.864" y1="0.17" x2="0.152" y2="0.863" gradientUnits="objectBoundingBox">
      <stop offset="0.19" stop-color="#00a2e1"/>
      <stop offset="1" stop-color="#6cd188"/>
    </linearGradient>
  </defs>
  <g id="Groupe_2152" data-name="Groupe 2152" transform="translate(-0.003 0)">
    <path id="Tracé_324" data-name="Tracé 324" d="M5.235.753A5.23,5.23,0,0,0,1.325,9.46L20.809,31.211V48.625a5.662,5.662,0,0,0,11.325,0h0V30.685L51.475,9.5a5.235,5.235,0,1,0-7.667-7.064L26.285,21.628,9.123,2.483A5.189,5.189,0,0,0,5.235.753Z" transform="translate(0 0.036)" fill="#1d1d1b"/>
    <path id="Tracé_325" data-name="Tracé 325" d="M148.879,15.682V48.966a5.18,5.18,0,0,0,10.35.476q.012-.238,0-.476V7.216a6.408,6.408,0,0,0-6.4-6.4h-.57a8.763,8.763,0,0,0-6.484,2.848l-15.8,17.316-15.8-17.316A8.763,8.763,0,0,0,107.687.82h-.58a6.408,6.408,0,0,0-6.4,6.4v41.75a5.18,5.18,0,0,0,10.35.476q.011-.238,0-.476V15.682l15.552,17a4.487,4.487,0,0,0,3.362,1.49,4.535,4.535,0,0,0,3.384-1.49Z" transform="translate(9.59 0.078)" fill="#1d1d1b"/>
    <path id="Tracé_326" data-name="Tracé 326" d="M74.5,0A27.711,27.711,0,0,0,56.388,7.02a27.381,27.381,0,0,0-9.507,19.331,27.446,27.446,0,0,0,26.4,28.456c.327.013.656.019.984.02a28.881,28.881,0,0,0,18.707-6.571,4.411,4.411,0,0,0-.35-7.031l-.372-.285a5.245,5.245,0,0,0-6.089.077A19.209,19.209,0,0,1,74.3,44.9a17.487,17.487,0,0,1-3.384-34.653A15.662,15.662,0,0,1,89.3,21.007l.427,1.15H75.916a4.967,4.967,0,1,0,0,9.934H94.535a7.674,7.674,0,0,1,.778,0,4.445,4.445,0,0,0,3.4-1.238c1.1-1.161,1.588-3.154,1.446-5.925a3.2,3.2,0,0,1,0-.383.367.367,0,0,1,0-.11v-.186C98.763,10.952,89.41,1.281,76.792.11A22.827,22.827,0,0,0,74.5,0Z" transform="translate(4.462)" fill="url(#linear-gradient)"/>
  </g>
</svg>
