<svg xmlns="http://www.w3.org/2000/svg" width="150" height="80" viewBox="0 0 150 80">
  <g id="logo-header-YEM-portal" transform="translate(-21)">
    <g id="Groupe_1909" data-name="Groupe 1909" transform="translate(47 25)">
      <path id="Tracé_161" data-name="Tracé 161" d="M52.069,41.672a2.98,2.98,0,0,0-3.017,2.943,2.91,2.91,0,0,0,.764,1.963L61.031,58.831v9.807a3.266,3.266,0,0,0,6.529.118c0-.04,0-.078,0-.118V58.529L78.741,46.6a2.9,2.9,0,0,0-.121-4.168,3.068,3.068,0,0,0-4.266.119c-.023.023-.044.046-.065.07l-10.118,10.8L54.318,42.64a3.037,3.037,0,0,0-2.249-.969" transform="translate(-49.052 -41.22)" fill="#fff"/>
      <path id="Tracé_162" data-name="Tracé 162" d="M158.531,50.14V68.883a2.985,2.985,0,0,0,5.969.009V45.367a3.65,3.65,0,0,0-3.686-3.6h-.332a5.131,5.131,0,0,0-3.738,1.607l-9.109,9.75-9.121-9.75a5.129,5.129,0,0,0-3.738-1.607h-.331a3.649,3.649,0,0,0-3.686,3.6V68.882a2.985,2.985,0,0,0,5.969.008V50.14l8.96,9.569a2.669,2.669,0,0,0,3.71.176c.063-.055.123-.114.18-.176Z" transform="translate(-67.387 -41.251)" fill="#fff"/>
      <path id="Tracé_163" data-name="Tracé 163" d="M103.03,41.1a16.162,16.162,0,0,0-10.441,3.957,15.107,15.107,0,0,0-1.583,21.645,15.852,15.852,0,0,0,11.9,5.3,16.9,16.9,0,0,0,10.786-3.694,2.433,2.433,0,0,0,.891-2.02,2.485,2.485,0,0,0-1.112-1.953l-.221-.159a3.062,3.062,0,0,0-3.507.043,11.269,11.269,0,0,1-6.839,2.186,10.116,10.116,0,0,1-7.978-3.829,9.687,9.687,0,0,1,1.758-13.8,10.152,10.152,0,0,1,4.269-1.9,9.059,9.059,0,0,1,10.6,6.063l.222.648h-7.939a2.885,2.885,0,0,0-2.026.82,2.756,2.756,0,0,0,0,3.961,2.9,2.9,0,0,0,2.022.818h10.722c.1-.008.257-.009.443-.009a2.587,2.587,0,0,0,1.958-.7,4.39,4.39,0,0,0,.835-3.343c0-.04-.009-.129-.014-.217V54.86l-.01-.108A14.672,14.672,0,0,0,104.356,41.16c-.446-.037-.887-.056-1.327-.056" transform="translate(-57.602 -41.104)" fill="#fff"/>
    </g>
    <rect id="Rectangle_1046" data-name="Rectangle 1046" width="150" height="80" transform="translate(21)" fill="none"/>
  </g>
</svg>
