<svg xmlns="http://www.w3.org/2000/svg" width="170" height="80" viewBox="0 0 170 80">
  <g id="Groupe_2156" transform="translate(-16)">
    <rect id="Rectangle_1054" width="170" height="80" transform="translate(16)" fill="#fff"/>
    <g id="Groupe_2153" transform="translate(-537.525 -348.586)">
      <g id="Groupe_2153-2" transform="translate(579 365)">
        <path id="Tracé_324" d="M27.626,62.976c2.944.789,9.293,1.645,9.293,1.645l-.674-5.526,4.276-2.944L34.88,48.7C30.587,51.513,26.722,58.749,27.626,62.976Z" transform="translate(-23.065 -40.707)" fill="#009fda"/>
        <path id="Tracé_325" d="M28.3,148.9c-.049,5.082,4.655,11.069,8.832,12.648,1.25-2.138,4.063-7.336,4.063-7.336l-3.734-3.734Z" transform="translate(-23.737 -124.426)" fill="#009fda"/>
        <path id="Tracé_326" d="M120.138,190.5l-4.622-8.7-7.072,1.447a65.736,65.736,0,0,0-1.743,8.372C111.98,193.182,120.138,190.5,120.138,190.5Z" transform="translate(-89.244 -151.915)" fill="#009fda"/>
        <path id="Tracé_327" d="M182.3,163.818l6.546,7.056,2.138-4.112L183.3,162.7Z" transform="translate(-152.41 -135.956)" fill="#009fda"/>
        <path id="Tracé_328" d="M199.4,105.62l7.911,3.059L206.637,97.1,199.4,101Z" transform="translate(-166.697 -81.146)" fill="#009fda"/>
        <path id="Tracé_329" d="M183.764,62.76l11.974-6.546L193.024,53.5,182.3,60.671Z" transform="translate(-152.41 -44.717)" fill="#009fda"/>
        <path id="Tracé_330" d="M90.9,28.143l5.082,7.122L99.6,33.8l3.618,2.829,7.056-5.526C110.275,31.07,103.778,22.271,90.9,28.143Z" transform="translate(-76.043 -21.843)" fill="#009fda"/>
        <path id="Tracé_331" d="M162.046,243.4l-6.546.164.674,3.734s8.076-1.4,12.418-4.523c-1.02-1.924-1.924-3.273-1.924-3.273Z" transform="translate(-130.018 -200.125)" fill="#009fda"/>
        <path id="Tracé_332" d="M239.3,203.408l3.273,2.253,3.158-5.642L242.507,199Z" transform="translate(-200.035 -166.286)" fill="#009fda"/>
        <path id="Tracé_333" d="M264,119.359c.428,2.434.691,7.451,0,9.26,1.382.559,3.5,1.464,3.5,1.464a20.6,20.6,0,0,0,0-11.283C265.76,119.145,264,119.359,264,119.359Z" transform="translate(-220.672 -99.277)" fill="#009fda"/>
        <path id="Tracé_334" d="M259.918,85.109l2.681-.855-.97-3.454L258.8,82.3Z" transform="translate(-216.328 -67.527)" fill="#009fda"/>
        <path id="Tracé_335" d="M191.675,18.792,183.3,15.7l-1,1.711,6.02,3.717Z" transform="translate(-152.41 -13.134)" fill="#009fda"/>
        <path id="Tracé_336" d="M89.865,2.024l2.516.609L93.007.741,89.487.1,78.5,2.024l1.118,1.941Z" transform="translate(-65.682 -0.1)" fill="#009fda"/>
        <path id="Tracé_337" d="M11.8,40.891,10.7,40.2,4.1,48.95H7.126Z" transform="translate(-3.519 -33.605)" fill="#009fda"/>
        <path id="Tracé_338" d="M.838,123.9c-.987,6.711,1.02,11.645,1.678,12.2l2.023-.2a116.678,116.678,0,0,1-2.8-12.2Z" transform="translate(-0.57 -103.371)" fill="#009fda"/>
        <path id="Tracé_339" d="M27.239,217.8,25.2,219.494c2.5,3.043,8.29,5.79,8.29,5.79s.3-.576,1.184-2.253A26.8,26.8,0,0,1,27.239,217.8Z" transform="translate(-21.149 -181.994)" fill="#009fda"/>
        <path id="Tracé_340" d="M98.9,260.533l5.757,1.678.3-3.355L98.9,258Z" transform="translate(-82.727 -215.582)" fill="#009fda"/>
        <path id="Tracé_341" d="M454.088,201.5c-2.237,0-3.388,1.086-3.388,3.849,0,2.6.888,3.766,3.454,3.766a6.365,6.365,0,0,0,2.434-.378.3.3,0,0,0,.23-.312,2.273,2.273,0,0,0-.148-.724.308.308,0,0,0-.3-.2,3.559,3.559,0,0,0-.411.066,5.974,5.974,0,0,1-1.645.181c-1.25,0-1.974-.312-1.99-1.957h4.194a.545.545,0,0,0,.313-.082c.1-.066.132-.23.132-.461C456.967,203.013,456.769,201.5,454.088,201.5Zm1.349,3.092h-3.092c.033-1.168.444-1.826,1.661-1.826,1.168,0,1.447.543,1.447,1.513A1.794,1.794,0,0,1,455.437,204.592Z" transform="translate(-376.665 -168.375)" fill="#004e6c"/>
        <path id="Tracé_342" d="M501.23,201.6a9.987,9.987,0,0,0-3.536.609.863.863,0,0,0-.493.888v5.576c0,.247.1.378.329.378h.921c.23,0,.345-.148.345-.378V203.8a.784.784,0,0,1,.082-.395.634.634,0,0,1,.28-.181,4.268,4.268,0,0,1,1.53-.247c.691,0,.97.132,1.069.461a2.892,2.892,0,0,1,.082.806v4.408c0,.23.1.378.329.378h.938c.247,0,.329-.148.329-.378V203.9a4.5,4.5,0,0,0-.148-1.414C503.088,201.929,502.578,201.6,501.23,201.6Z" transform="translate(-415.517 -168.458)" fill="#004e6c"/>
        <path id="Tracé_343" d="M547.088,201.5c-2.237,0-3.388,1.086-3.388,3.849,0,2.6.888,3.766,3.454,3.766a6.365,6.365,0,0,0,2.434-.378.3.3,0,0,0,.23-.312,2.271,2.271,0,0,0-.148-.724.308.308,0,0,0-.3-.2,3.558,3.558,0,0,0-.411.066,5.974,5.974,0,0,1-1.645.181c-1.25,0-1.974-.312-1.99-1.957h4.194a.545.545,0,0,0,.313-.082c.1-.066.132-.23.132-.461C549.983,203.013,549.769,201.5,547.088,201.5Zm1.349,3.092h-3.092c.033-1.168.444-1.826,1.661-1.826,1.168,0,1.447.543,1.447,1.513A1.794,1.794,0,0,1,548.437,204.592Z" transform="translate(-454.368 -168.375)" fill="#004e6c"/>
        <path id="Tracé_344" d="M594.113,201.666a3.539,3.539,0,0,0-.855-.066,6,6,0,0,0-2.763.674.914.914,0,0,0-.395.888v5.493c0,.247.1.378.329.378h.921c.23,0,.345-.148.345-.378v-4.8a1.107,1.107,0,0,1,.066-.411.442.442,0,0,1,.23-.2,2.61,2.61,0,0,1,1.184-.23c.181,0,.609.033.773.033s.3-.066.313-.214a4.936,4.936,0,0,0,.066-.839A.3.3,0,0,0,594.113,201.666Z" transform="translate(-493.137 -168.458)" fill="#004e6c"/>
        <path id="Tracé_345" d="M626,202a9.059,9.059,0,0,0-2.582-.3c-2.319,0-3.421.839-3.421,3.947,0,2.829,1,3.635,3.109,3.635a3.386,3.386,0,0,0,1.711-.312v.23a1.829,1.829,0,0,1-.247,1.036c-.3.493-.97.773-3.257.888a.4.4,0,0,0-.378.428,4.506,4.506,0,0,0,.049.609c.049.23.181.329.461.329,2.73,0,4.424-.576,4.819-2.039a7.462,7.462,0,0,0,.181-1.891v-5.872A.628.628,0,0,0,626,202Zm-1.151,5.165a.687.687,0,0,1-.049.3.428.428,0,0,1-.247.23,3.563,3.563,0,0,1-1.365.2c-1.25,0-1.579-.691-1.579-2.3,0-1.842.3-2.533,1.908-2.533a4.346,4.346,0,0,1,1.118.132c.148.049.214.164.214.428Z" transform="translate(-518.119 -168.542)" fill="#004e6c"/>
        <path id="Tracé_346" d="M670.088,183c-.543,0-.888.3-.888.97,0,.74.378.938.888.938.592,0,.9-.263.9-.954C670.993,183.214,670.647,183,670.088,183Z" transform="translate(-559.227 -152.917)" fill="#004e6c"/>
        <path id="Tracé_347" d="M671.166,202.6h-.937c-.263,0-.329.164-.329.395v6.513c0,.263.115.378.329.378h.921c.23,0,.345-.132.345-.378v-6.53C671.5,202.748,671.413,202.6,671.166,202.6Z" transform="translate(-559.812 -169.294)" fill="#004e6c"/>
        <path id="Tracé_348" d="M693.009,202.059c-.411-.411-1.053-.559-2.3-.559a9.435,9.435,0,0,0-2.434.329.373.373,0,0,0-.3.378,4.791,4.791,0,0,0,.115.707.28.28,0,0,0,.28.23c.1,0,.395-.066.576-.082a8.335,8.335,0,0,1,1.513-.164c.954,0,1.234.181,1.349.493a2.718,2.718,0,0,1,.082.773v.477a12.46,12.46,0,0,0-1.4-.066,4.908,4.908,0,0,0-2.286.428,1.856,1.856,0,0,0-.806,1.76c0,1.25.444,2.319,2.664,2.319a9.054,9.054,0,0,0,2.8-.411.928.928,0,0,0,.461-.329,1.035,1.035,0,0,0,.164-.658v-3.734A2.569,2.569,0,0,0,693.009,202.059Zm-1.1,4.868a1.494,1.494,0,0,1-.066.493.449.449,0,0,1-.247.247,3.99,3.99,0,0,1-1.332.181c-1.086,0-1.332-.444-1.332-1.118,0-.411.1-.625.312-.757a2.662,2.662,0,0,1,1.431-.247c.411,0,.9.033,1.217.066v1.135Z" transform="translate(-574.433 -168.375)" fill="#004e6c"/>
        <path id="Tracé_349" d="M350.824,56.233v-7.8c.082-5.082-2.155-7.237-7.188-7.237a13.085,13.085,0,0,0-6.99,2.155l.658,3.01a11.673,11.673,0,0,1,6-2.072c3.01,0,4.178,1.217,4.178,4.227v.526c-8.684.411-11.086,3.339-11.086,6.661,0,3.01,2.434,5.313,5.938,5.313a6.621,6.621,0,0,0,5.115-2.6h.164c.493,1.628,1.826,2.681,4.836,2.434l.2-2.8C351.022,58.075,350.824,57.779,350.824,56.233Zm-3.339-.033a5.912,5.912,0,0,1-4.26,1.99c-2.023,0-3.289-1.217-3.289-2.878,0-2.27,2.023-3.4,7.549-4.145Z" transform="translate(-281.164 -34.44)" fill="#009fda"/>
        <path id="Tracé_350" d="M466.53,54.412h-10.2c5.28-3.816,9.309-6.25,9.309-10.674,0-3.569-2.878-5.938-7.023-5.938a11.559,11.559,0,0,0-7.3,2.6l1.184,2.845a9.71,9.71,0,0,1,5.773-2.319c2.434,0,3.865,1.332,3.865,3.207,0,3.174-5.165,6.332-10.839,10.559V57.57h15.263V54.412Z" transform="translate(-377.166 -31.599)" fill="#009fda"/>
        <path id="Tracé_351" d="M575.024,56.233v-7.8c.082-5.082-2.155-7.237-7.188-7.237a13.085,13.085,0,0,0-6.99,2.155l.658,3.01a11.824,11.824,0,0,1,6-2.072c3.01,0,4.178,1.217,4.178,4.227v.526C563,49.457,560.6,52.384,560.6,55.707c0,3.01,2.434,5.313,5.938,5.313a6.621,6.621,0,0,0,5.115-2.6h.164c.493,1.628,1.826,2.681,4.836,2.434l.2-2.8C575.222,58.075,575.024,57.779,575.024,56.233Zm-3.339-.033a5.912,5.912,0,0,1-4.26,1.99c-2.023,0-3.289-1.217-3.289-2.878,0-2.27,2.023-3.4,7.549-4.145Z" transform="translate(-468.489 -34.44)" fill="#009fda"/>
      </g>
    </g>
  </g>
</svg>
