<?xml version="1.0" encoding="utf-8"?>
<!-- Generator: Adobe Illustrator 25.2.2, SVG Export Plug-In . SVG Version: 6.00 Build 0)  -->
<svg version="1.1" id="Livello_1" xmlns="http://www.w3.org/2000/svg" xmlns:xlink="http://www.w3.org/1999/xlink" x="0px" y="0px"
	 viewBox="0 0 725 287" style="enable-background:new 0 0 725 287;" xml:space="preserve">
<style type="text/css">
	.st0{fill:#009FDA;}
	.st1{fill:#004E6C;}
</style>
<g>
	<path class="st0" d="M28.3,135.5c17.9,4.8,56.5,10,56.5,10l-4.1-33.6l26-17.9L72.4,48.7C46.3,65.8,22.8,109.8,28.3,135.5z"/>
	<path class="st0" d="M28.3,148.9C28,179.8,56.6,216.2,82,225.8c7.6-13,24.7-44.6,24.7-44.6L84,158.5L28.3,148.9z"/>
	<path class="st0" d="M188.4,234.7l-28.1-52.9l-43,8.8c0,0-5.5,17.9-10.6,50.9C138.8,251,188.4,234.7,188.4,234.7z"/>
	<polygon class="st0" points="182.3,169.5 222.1,212.4 235.1,187.4 188.4,162.7 	"/>
	<polygon class="st0" points="199.4,148.9 247.5,167.5 243.4,97.1 199.4,120.8 	"/>
	<polygon class="st0" points="191.2,109.8 264,70 247.5,53.5 182.3,97.1 	"/>
	<path class="st0" d="M90.9,38.4l30.9,43.3l22-8.9l22,17.2l42.9-33.6C208.7,56.2,169.2,2.7,90.9,38.4z"/>
	<path class="st0" d="M195.3,263.2l-39.8,1l4.1,22.7c0,0,49.1-8.5,75.5-27.5c-6.2-11.7-11.7-19.9-11.7-19.9L195.3,263.2z"/>
	<polygon class="st0" points="239.3,225.8 259.2,239.5 278.4,205.2 258.8,199 	"/>
	<path class="st0" d="M264,122.2c2.6,14.8,4.2,45.3,0,56.3c8.4,3.4,21.3,8.9,21.3,8.9s11-34.3,0-68.6
		C274.7,120.9,264,122.2,264,122.2z"/>
	<polygon class="st0" points="265.6,107 281.9,101.8 276,80.8 258.8,89.9 	"/>
	<polygon class="st0" points="239.3,34.5 188.4,15.7 182.3,26.1 218.9,48.7 	"/>
	<polygon class="st0" points="147.6,11.8 162.9,15.5 166.7,4 145.3,0.1 78.5,11.8 85.3,23.6 	"/>
	<polygon class="st0" points="50.9,44.4 44.2,40.2 4.1,93.4 22.5,93.4 	"/>
	<path class="st0" d="M2.2,124.9c-6,40.8,6.2,70.8,10.2,74.2l12.3-1.2c0,0-13.8-48.8-17-74.2L2.2,124.9z"/>
	<path class="st0" d="M37.6,217.8l-12.4,10.3c15.2,18.5,50.4,35.2,50.4,35.2s1.8-3.5,7.2-13.7C58.8,239.5,37.6,217.8,37.6,217.8z"/>
	<polygon class="st0" points="98.9,273.4 133.9,283.6 135.7,263.2 98.9,258 	"/>
	<path class="st1" d="M471.3,201.5c-13.6,0-20.6,6.6-20.6,23.4c0,15.8,5.4,22.9,21,22.9c5.1,0,10.8-0.5,14.8-2.3
		c1.1-0.4,1.4-1.1,1.4-1.9c0-1.1-0.4-3.3-0.9-4.4c-0.3-0.7-0.9-1.2-1.8-1.2c-0.8,0-1.7,0.3-2.5,0.4c-2.6,0.7-5.4,1.1-10,1.1
		c-7.6,0-12-1.9-12.1-11.9h25.5c0.8,0,1.5-0.2,1.9-0.5c0.6-0.4,0.8-1.4,0.8-2.8C488.8,210.7,487.6,201.5,471.3,201.5z M479.5,220.3
		h-18.8c0.2-7.1,2.7-11.1,10.1-11.1c7.1,0,8.8,3.3,8.8,9.2C479.6,219.1,479.6,219.8,479.5,220.3z"/>
	<path class="st1" d="M521.7,201.6c-6.5,0-16,1.2-21.5,3.7c-1.8,0.8-3,2.4-3,5.4v33.9c0,1.5,0.6,2.3,2,2.3h5.6
		c1.4,0,2.1-0.9,2.1-2.3V215c0-1.1,0.2-1.9,0.5-2.4c0.4-0.5,1.1-0.9,1.7-1.1c1.5-0.6,4.7-1.5,9.3-1.5c4.2,0,5.9,0.8,6.5,2.8
		c0.4,1.1,0.5,3.2,0.5,4.9v26.8c0,1.4,0.6,2.3,2,2.3h5.7c1.5,0,2-0.9,2-2.3v-28.9c0-3.3-0.1-6.4-0.9-8.6
		C533,203.6,529.9,201.6,521.7,201.6z"/>
	<path class="st1" d="M564.3,201.5c-13.6,0-20.6,6.6-20.6,23.4c0,15.8,5.4,22.9,21,22.9c5.1,0,10.8-0.5,14.8-2.3
		c1.1-0.4,1.4-1.1,1.4-1.9c0-1.1-0.4-3.3-0.9-4.4c-0.3-0.7-0.9-1.2-1.8-1.2c-0.8,0-1.7,0.3-2.5,0.4c-2.6,0.7-5.4,1.1-10,1.1
		c-7.6,0-12-1.9-12.1-11.9h25.5c0.8,0,1.5-0.2,1.9-0.5c0.6-0.4,0.8-1.4,0.8-2.8C581.9,210.7,580.6,201.5,564.3,201.5z M572.5,220.3
		h-18.8c0.2-7.1,2.7-11.1,10.1-11.1c7.1,0,8.8,3.3,8.8,9.2C572.6,219.1,572.6,219.8,572.5,220.3z"/>
	<path class="st1" d="M614.5,202c-1.1-0.3-2.7-0.4-5.2-0.4c-6.4,0-14.1,2.2-16.8,4.1c-1.8,1.4-2.4,2.5-2.4,5.4v33.4
		c0,1.5,0.6,2.3,2,2.3h5.6c1.4,0,2.1-0.9,2.1-2.3v-29.2c0-1.2,0.2-2,0.4-2.5c0.3-0.6,0.9-1,1.4-1.2c1.6-0.9,4.3-1.4,7.2-1.4
		c1.1,0,3.7,0.2,4.7,0.2s1.8-0.4,1.9-1.3c0.3-1.3,0.4-3.9,0.4-5.1C615.9,202.9,615.3,202.3,614.5,202z"/>
	<path class="st1" d="M656.5,203.5c-4.6-1.4-10-1.8-15.7-1.8c-14.1,0-20.8,5.1-20.8,24c0,17.2,6.1,22.1,18.9,22.1
		c4.2,0,8.1-0.4,10.4-1.9v1.4c0,2.5-0.4,4.7-1.5,6.3c-1.8,3-5.9,4.7-19.8,5.4c-1.4,0.1-2.3,1.1-2.3,2.6c0,0.8,0.1,2.5,0.3,3.7
		c0.3,1.4,1.1,2,2.8,2c16.6,0,26.9-3.5,29.3-12.4c0.9-3.2,1.1-7.4,1.1-11.5v-35.7C659.2,205.3,658.2,204,656.5,203.5z M649.5,234.9
		c0,0.7-0.1,1.5-0.3,1.8c-0.2,0.6-0.8,1.1-1.5,1.4c-2.2,1-5.4,1.2-8.3,1.2c-7.6,0-9.6-4.2-9.6-14c0-11.2,1.8-15.4,11.6-15.4
		c2.3,0,5.3,0.3,6.8,0.8c0.9,0.3,1.3,1,1.3,2.6V234.9z"/>
	<path class="st1" d="M674.6,183c-3.3,0-5.4,1.8-5.4,5.9c0,4.5,2.3,5.7,5.4,5.7c3.6,0,5.5-1.6,5.5-5.8
		C680.1,184.3,678,183,674.6,183z"/>
	<path class="st1" d="M677.6,202.6h-5.7c-1.6,0-2,1-2,2.4v39.6c0,1.6,0.7,2.3,2,2.3h5.6c1.4,0,2.1-0.8,2.1-2.3v-39.7
		C679.6,203.5,679.1,202.6,677.6,202.6z"/>
	<path class="st1" d="M721.5,204.9c-2.5-2.5-6.4-3.4-14-3.4c-4.6,0-10.3,0.7-14.8,2c-1.1,0.4-1.8,1-1.8,2.3c0,0.8,0.4,3,0.7,4.3
		c0.3,0.9,0.8,1.4,1.7,1.4c0.6,0,2.4-0.4,3.5-0.5c3.1-0.6,6.4-1,9.2-1c5.8,0,7.5,1.1,8.2,3c0.4,1.1,0.5,3.1,0.5,4.7v2.9
		c-2.3-0.3-5.8-0.4-8.5-0.4c-5.8,0-11.1,0.9-13.9,2.6c-3.4,2.2-4.9,5.4-4.9,10.7c0,7.6,2.7,14.1,16.2,14.1c6.1,0,13.6-1.1,17-2.5
		c1.4-0.5,2.2-1.2,2.8-2c0.8-1,1-2.4,1-4v-22.7C724.4,210.6,723.7,207.1,721.5,204.9z M714.8,234.5c0,1.1-0.1,2.2-0.4,3
		c-0.2,0.6-0.7,1.1-1.5,1.5c-1.6,0.6-4.3,1.1-8.1,1.1c-6.6,0-8.1-2.7-8.1-6.8c0-2.5,0.6-3.8,1.9-4.6c1.6-1.1,4.3-1.5,8.7-1.5
		c2.5,0,5.5,0.2,7.4,0.4L714.8,234.5L714.8,234.5z"/>
	<path class="st0" d="M424.1,132.6V85.2c0.5-30.9-13.1-44-43.7-44c-16.1,0-32.6,6.2-42.5,13.1l4,18.3c10.6-7.2,24.9-12.6,36.5-12.6
		c18.3,0,25.4,7.4,25.4,25.7v3.2c-52.8,2.5-67.4,20.3-67.4,40.5c0,18.3,14.8,32.3,36.1,32.3c12.1,0,22.5-5.7,31.1-15.8h1
		c3,9.9,11.1,16.3,29.4,14.8l1.2-17C425.3,143.8,424.1,142,424.1,132.6z M403.8,132.4c-6.4,6.9-15.6,12.1-25.9,12.1
		c-12.3,0-20-7.4-20-17.5c0-13.8,12.3-20.7,45.9-25.2V132.4z"/>
	<path class="st0" d="M543.9,138.8h-62c32.1-23.2,56.6-38,56.6-64.9c0-21.7-17.5-36.1-42.7-36.1c-18.3,0-32.8,6.7-44.4,15.8
		l7.2,17.3c11.6-8.6,22.7-14.1,35.1-14.1c14.8,0,23.5,8.1,23.5,19.5c0,19.3-31.4,38.5-65.9,64.2V158h92.8v-19.2H543.9z"/>
	<path class="st0" d="M648.3,132.6V85.2c0.5-30.9-13.1-44-43.7-44c-16.1,0-32.6,6.2-42.5,13.1l4,18.3C576.7,65.5,591,60,602.6,60
		c18.3,0,25.4,7.4,25.4,25.7v3.2c-52.8,2.5-67.4,20.3-67.4,40.5c0,18.3,14.8,32.3,36.1,32.3c12.1,0,22.5-5.7,31.1-15.8h1
		c3,9.9,11.1,16.3,29.4,14.8l1.2-17C649.5,143.8,648.3,142,648.3,132.6z M628,132.4c-6.4,6.9-15.6,12.1-25.9,12.1
		c-12.3,0-20-7.4-20-17.5c0-13.8,12.3-20.7,45.9-25.2V132.4z"/>
</g>
</svg>
