<?xml version="1.0" encoding="utf-8"?>
<!-- Generator: Adobe Illustrator 25.2.2, SVG Export Plug-In . SVG Version: 6.00 Build 0)  -->
<svg version="1.1" id="logo-header-OptimizationEnergy-80px-haut"
	 xmlns="http://www.w3.org/2000/svg" xmlns:xlink="http://www.w3.org/1999/xlink" x="0px" y="0px" viewBox="0 0 264 80"
	 style="enable-background:new 0 0 264 80;" xml:space="preserve">
<style type="text/css">
	.st0{fill:#FFFFFF;}
	.st1{enable-background:new    ;}
	.st2{fill:#00C3D3;}
</style>
<g id="logo">
	<rect id="Rectangle_1054" y="0" class="st0" width="264" height="80"/>
</g>
<g id="Groupe_2152" transform="translate(45 26)">
	<g class="st1">
		<path class="st2" d="M8.1,11.7c0,4-2.4,7.5-7.1,7.5c-4.6,0-6.9-3.3-6.9-7.5c0-4.2,2.6-7.4,7.1-7.4C5.4,4.3,8.1,7.3,8.1,11.7z
			 M-2.8,11.7c0,2.8,1.2,5,3.8,5c2.8,0,3.8-2.3,3.8-4.9C4.8,9,3.7,6.9,1,6.9C-1.6,6.9-2.8,8.9-2.8,11.7z"/>
		<path class="st2" d="M10.3,23.2V10.7c0-0.9,0-1.7,0-2.6h2.9c0,0.3,0.1,1,0.1,1.4c0.5-0.8,1.4-1.6,3.1-1.6c2.5,0,4.3,2.1,4.3,5.4
			c0,3.8-2.1,6-4.7,6c-1.5,0-2.3-0.6-2.8-1.2v5.1H10.3z M15.5,10.3c-1.7,0-2.3,1.1-2.3,3.3c0,2.1,0.6,3.3,2.2,3.3
			c1.6,0,2.4-1.2,2.4-3.4C17.7,11.4,16.9,10.3,15.5,10.3z"/>
		<path class="st2" d="M21.8,8.1h1.7V5.2h3v2.9h2.1v2.3h-2.1v5.4c0,0.8,0.3,1.1,1.2,1.1c0.2,0,0.5,0,0.7,0v2.1
			c-0.6,0.2-1.4,0.2-2,0.2c-2.1,0-2.8-1.1-2.8-3v-5.7h-1.7V8.1z"/>
		<path class="st2" d="M30.3,6.4V3.7h3v2.7H30.3z M30.3,8.1h3V19h-3V8.1z"/>
		<path class="st2" d="M36,10.9c0-0.9,0-1.9,0-2.8h2.9c0,0.3,0.1,0.9,0.1,1.3c0.5-0.8,1.4-1.6,3-1.6c1.6,0,2.4,0.8,2.8,1.7
			c0.7-0.9,1.6-1.7,3.4-1.7c1.9,0,3.4,1.2,3.4,4V19h-2.9v-6.8c0-1-0.4-2-1.6-2c-1.3,0-1.8,0.8-1.8,2.5V19h-3v-6.7c0-1.1-0.3-2-1.6-2
			c-1.2,0-1.8,0.8-1.8,2.6V19h-3V10.9z"/>
		<path class="st2" d="M54.3,6.4V3.7h3v2.7H54.3z M54.3,8.1h3V19h-3V8.1z"/>
		<path class="st2" d="M59.3,16.7l5.4-6.2h-5.1V8.1h8.5v2.4l-5.3,6.2h5.6L68.1,19h-8.8V16.7z"/>
		<path class="st2" d="M79.4,16.2c0,1,0.1,2.6,0.1,2.8h-2.9c-0.1-0.2-0.1-0.8-0.1-1.1c-0.4,0.6-1.1,1.3-3.1,1.3
			c-2.6,0-3.7-1.7-3.7-3.4c0-2.5,2-3.6,5.2-3.6h1.6v-0.7c0-0.8-0.3-1.5-1.7-1.5c-1.3,0-1.6,0.5-1.7,1.3h-2.9
			c0.1-1.9,1.3-3.5,4.7-3.5c2.9,0,4.5,1.2,4.5,3.8V16.2z M76.4,14h-1.2c-1.8,0-2.5,0.6-2.5,1.6c0,0.8,0.5,1.4,1.6,1.4
			c1.9,0,2.1-1.3,2.1-2.8V14z"/>
		<path class="st2" d="M80.8,8.1h1.7V5.2h3v2.9h2.1v2.3h-2.1v5.4c0,0.8,0.3,1.1,1.2,1.1c0.2,0,0.5,0,0.7,0v2.1
			c-0.6,0.2-1.4,0.2-2,0.2c-2.1,0-2.8-1.1-2.8-3v-5.7h-1.7V8.1z"/>
		<path class="st2" d="M89.3,6.4V3.7h3v2.7H89.3z M89.3,8.1h3V19h-3V8.1z"/>
		<path class="st2" d="M105.1,13.5c0,3.3-2,5.7-5.4,5.7c-3.4,0-5.3-2.4-5.3-5.6c0-3.4,2-5.7,5.5-5.7
			C103.1,7.9,105.1,10.1,105.1,13.5z M97.4,13.6c0,2.1,0.9,3.3,2.4,3.3c1.5,0,2.3-1.2,2.3-3.3c0-2.3-0.8-3.3-2.4-3.3
			C98.4,10.2,97.4,11.3,97.4,13.6z"/>
		<path class="st2" d="M107.2,10.9c0-0.9,0-1.9,0-2.8h2.9c0.1,0.3,0.1,1,0.1,1.4c0.4-0.7,1.2-1.6,3.1-1.6c2.2,0,3.6,1.5,3.6,4.2V19
			h-3v-6.6c0-1.2-0.4-2.1-1.7-2.1c-1.3,0-2,0.7-2,2.6v6h-3V10.9z"/>
	</g>
	<g class="st1">
		<path class="st2" d="M129.4,12.2h-7.3v5.2h8l-0.3,1.7h-9.6V4.4h9.5V6h-7.6v4.5h7.3V12.2z"/>
		<path class="st2" d="M132.3,11c0-0.9,0-1.9,0-2.7h1.8c0.1,0.3,0.1,1.4,0.1,1.7c0.4-0.9,1.3-2,3.3-2c2,0,3.6,1.2,3.6,4.1V19h-1.8
			v-6.6c0-1.6-0.6-2.7-2.2-2.7c-2,0-2.8,1.5-2.8,3.7V19h-1.8V11z"/>
		<path class="st2" d="M145.2,14c0,2.2,1.1,3.7,2.9,3.7c1.7,0,2.2-0.9,2.6-1.7h1.9c-0.4,1.4-1.6,3.2-4.5,3.2c-3.3,0-4.7-2.7-4.7-5.5
			c0-3.2,1.6-5.7,4.8-5.7c3.4,0,4.6,2.8,4.6,5c0,0.3,0,0.6,0,0.9H145.2z M150.9,12.7c0-1.8-0.9-3.2-2.7-3.2c-1.9,0-2.7,1.3-2.9,3.2
			H150.9z"/>
		<path class="st2" d="M155.1,11.3c0-1.5,0-2.3,0-2.9h1.8c0,0.3,0.1,1.1,0.1,2.2c0.5-1.4,1.8-2.4,3.6-2.4v1.8
			c-2.2,0.1-3.6,1.2-3.6,3.9V19h-1.8V11.3z"/>
		<path class="st2" d="M171.1,18c0,3.4-1.4,5.4-4.9,5.4c-3.2,0-4.2-1.8-4.4-3.3h1.9c0.3,1.2,1.3,1.8,2.6,1.8c2.4,0,3-1.5,3-4v-0.9
			c-0.6,1.2-1.5,1.9-3.3,1.9c-2.6,0-4.4-2.1-4.4-5.3c0-3.5,2-5.6,4.6-5.6c2,0,2.9,0.9,3.1,1.7c0-0.5,0.1-1.2,0.1-1.4h1.7
			c0,0.6,0,2.1,0,3.1V18z M166.4,17.4c2.3,0,3-1.6,3-3.9c0-2.4-0.6-3.8-2.9-3.8c-2,0-3,1.7-3,3.9C163.4,15.9,164.6,17.4,166.4,17.4z
			"/>
		<path class="st2" d="M174.9,8.4c1.7,5.1,2.7,7.9,3,9h0c0.3-1.2,1.1-3.7,2.8-9h1.8l-3.8,11.1c-1.1,3.1-1.9,3.9-4.1,3.9
			c-0.3,0-0.7,0-1.2-0.1v-1.6c0.3,0,0.6,0,0.9,0c1.3,0,1.8-0.6,2.5-2.4l-4-11.1H174.9z"/>
	</g>
</g>
</svg>
