<?xml version="1.0" encoding="utf-8"?>
<!-- Generator: Adobe Illustrator 25.2.2, SVG Export Plug-In . SVG Version: 6.00 Build 0)  -->
<svg version="1.1" id="Calque_1" xmlns="http://www.w3.org/2000/svg" xmlns:xlink="http://www.w3.org/1999/xlink" x="0px" y="0px"
	 viewBox="0 0 272 30" style="enable-background:new 0 0 272 30;" xml:space="preserve">
<style type="text/css">
	.st0{enable-background:new    ;}
	.st1{fill:#00C3D3;}
</style>
<g id="logo-login-OptimizationEnergy" transform="translate(-472.838 119.579)">
	<g id="Groupe_2152" transform="translate(473 -120)">
		<g class="st0">
			<path class="st1" d="M21.3,12c0,5.8-3.5,10.7-10.2,10.7c-6.5,0-9.9-4.7-9.9-10.6c0-6,3.8-10.6,10.2-10.6
				C17.5,1.5,21.3,5.7,21.3,12z M5.9,12c0,4,1.8,7.1,5.4,7.1c4,0,5.4-3.3,5.4-7c0-3.9-1.6-7-5.5-7C7.5,5.1,5.9,8,5.9,12z"/>
			<path class="st1" d="M24.5,28.4V10.6c0-1.3,0-2.5,0-3.7h4.2c0.1,0.4,0.2,1.4,0.2,1.9c0.7-1.1,2-2.3,4.5-2.3
				c3.5,0,6.2,2.9,6.2,7.7c0,5.5-3,8.5-6.7,8.5c-2.2,0-3.3-0.8-3.9-1.7v7.3H24.5z M31.9,10c-2.4,0-3.3,1.6-3.3,4.7
				c0,3,0.8,4.7,3.1,4.7c2.3,0,3.4-1.8,3.4-4.9C35.1,11.6,34,10,31.9,10z"/>
			<path class="st1" d="M41,6.9h2.4V2.7h4.3v4.2h3.1v3.2h-3.1v7.7c0,1.2,0.4,1.6,1.6,1.6c0.2,0,0.7,0,1,0v2.9
				c-0.8,0.3-2,0.3-2.9,0.3c-3,0-4-1.6-4-4.3v-8.2H41V6.9z"/>
			<path class="st1" d="M53.1,4.4V0.5h4.3v3.8H53.1z M53.1,6.9h4.3v15.5h-4.3V6.9z"/>
			<path class="st1" d="M61.2,10.9c0-1.3,0-2.7,0-4h4.1c0.1,0.4,0.2,1.3,0.2,1.9c0.8-1.1,2-2.2,4.3-2.2c2.2,0,3.4,1.2,4,2.4
				c0.9-1.3,2.2-2.4,4.8-2.4c2.7,0,4.9,1.7,4.9,5.7v10.2h-4.2v-9.7c0-1.4-0.5-2.8-2.3-2.8c-1.8,0-2.5,1.2-2.5,3.6v8.9h-4.2v-9.5
				c0-1.6-0.4-2.9-2.2-2.9c-1.7,0-2.6,1.1-2.6,3.8v8.7h-4.3V10.9z"/>
			<path class="st1" d="M87.4,4.4V0.5h4.3v3.8H87.4z M87.4,6.9h4.3v15.5h-4.3V6.9z"/>
			<path class="st1" d="M94.6,19.2l7.7-8.9H95V6.9h12.2v3.4L99.6,19h8.1l-0.5,3.4H94.6V19.2z"/>
			<path class="st1" d="M123.2,18.4c0,1.5,0.1,3.7,0.2,4h-4.1c-0.1-0.3-0.2-1.1-0.2-1.5c-0.6,0.9-1.6,1.9-4.4,1.9
				c-3.7,0-5.3-2.5-5.3-4.9c0-3.5,2.8-5.2,7.4-5.2h2.2v-0.9c0-1.1-0.4-2.2-2.4-2.2c-1.8,0-2.2,0.8-2.4,1.9h-4.1c0.2-2.8,1.9-5,6.7-5
				c4.1,0,6.4,1.7,6.4,5.4V18.4z M119,15.3h-1.7c-2.6,0-3.6,0.8-3.6,2.3c0,1.1,0.7,2.1,2.2,2.1c2.7,0,3.1-1.9,3.1-4V15.3z"/>
			<path class="st1" d="M125.3,6.9h2.4V2.7h4.3v4.2h3.1v3.2H132v7.7c0,1.2,0.4,1.6,1.6,1.6c0.2,0,0.7,0,1,0v2.9
				c-0.8,0.3-2,0.3-2.9,0.3c-3,0-4-1.6-4-4.3v-8.2h-2.4V6.9z"/>
			<path class="st1" d="M137.4,4.4V0.5h4.3v3.8H137.4z M137.4,6.9h4.3v15.5h-4.3V6.9z"/>
			<path class="st1" d="M160,14.6c0,4.7-2.8,8.2-7.7,8.2c-4.8,0-7.6-3.5-7.6-8.1c0-4.8,2.9-8.2,7.8-8.2C157.1,6.5,160,9.8,160,14.6z
				 M149,14.7c0,3,1.3,4.8,3.4,4.8c2.1,0,3.3-1.8,3.3-4.7c0-3.2-1.2-4.8-3.4-4.8C150.3,9.9,149,11.4,149,14.7z"/>
			<path class="st1" d="M163,10.8c0-1.3,0-2.8,0-3.9h4.2c0.1,0.4,0.2,1.5,0.2,2c0.5-1,1.8-2.3,4.5-2.3c3.1,0,5.1,2.1,5.1,6v9.9h-4.3
				V13c0-1.8-0.6-3-2.5-3c-1.8,0-2.9,1-2.9,3.8v8.6H163V10.8z"/>
		</g>
		<g class="st0">
			<path class="st1" d="M194.7,12.7h-10.4v7.4h11.4l-0.4,2.4h-13.7V1.5h13.6v2.4h-10.9v6.4h10.4V12.7z"/>
			<path class="st1" d="M198.8,11.1c0-1.3,0-2.7,0-3.8h2.5c0.1,0.4,0.1,2,0.1,2.5c0.6-1.3,1.8-2.8,4.8-2.8c2.9,0,5.1,1.7,5.1,5.8
				v9.8h-2.6V13c0-2.3-0.9-3.8-3.2-3.8c-2.9,0-4,2.2-4,5.2v8h-2.6V11.1z"/>
			<path class="st1" d="M217.3,15.3c0,3.1,1.6,5.3,4.2,5.3c2.4,0,3.2-1.3,3.7-2.4h2.7c-0.6,2-2.2,4.6-6.4,4.6
				c-4.8,0-6.7-3.9-6.7-7.8c0-4.5,2.3-8.1,6.9-8.1c4.9,0,6.5,3.9,6.5,7.2c0,0.5,0,0.9,0,1.3H217.3z M225.4,13.5
				c0-2.5-1.3-4.5-3.9-4.5c-2.7,0-3.9,1.9-4.1,4.5H225.4z"/>
			<path class="st1" d="M231.5,11.4c0-2.1,0-3.3,0-4.1h2.6c0,0.4,0.1,1.6,0.1,3.1c0.8-2,2.6-3.4,5.1-3.5v2.6
				c-3.1,0.1-5.1,1.7-5.1,5.6v7.4h-2.6V11.4z"/>
			<path class="st1" d="M254.2,21c0,4.9-2,7.6-7,7.6c-4.6,0-6-2.6-6.3-4.6h2.7c0.5,1.7,1.8,2.5,3.8,2.5c3.5,0,4.3-2.2,4.3-5.7v-1.2
				c-0.8,1.7-2.2,2.7-4.7,2.7c-3.8,0-6.3-3.1-6.3-7.5c0-4.9,2.9-8,6.6-8c2.9,0,4.1,1.3,4.5,2.4c0-0.7,0.1-1.7,0.1-2h2.5
				c0,0.9,0,2.9,0,4.4V21z M247.5,20.1c3.3,0,4.2-2.2,4.2-5.6c0-3.4-0.9-5.5-4.1-5.5c-2.8,0-4.3,2.4-4.3,5.6
				C243.3,17.9,245,20.1,247.5,20.1z"/>
			<path class="st1" d="M259.7,7.2c2.5,7.3,3.8,11.3,4.2,12.9h0c0.5-1.7,1.6-5.2,4-12.9h2.6l-5.5,15.9c-1.5,4.5-2.7,5.6-5.8,5.6
				c-0.5,0-1.1,0-1.7-0.1v-2.3c0.4,0,0.8,0.1,1.3,0.1c1.9,0,2.6-0.8,3.5-3.4l-5.7-15.8H259.7z"/>
		</g>
	</g>
</g>
</svg>
