<svg xmlns="http://www.w3.org/2000/svg" width="170" height="80" viewBox="0 0 170 80">
  <g id="Groupe_2171" transform="translate(-16)">
    <rect id="Rectangle_1054" width="170" height="80" transform="translate(16)" fill="#fff"/>
    <g id="Groupe_2156" transform="translate(-212.371 -109.074)">
      <g id="Groupe_2170" transform="translate(261.372 127.56)">
        <g id="Groupe_2169" transform="translate(0 0)">
          <g id="Groupe_2168">
            <g id="Groupe_2167">
              <g id="Groupe_2163">
                <g id="Groupe_2162">
                  <g id="Groupe_2161">
                    <g id="Groupe_2160">
                      <g id="Groupe_2159">
                        <g id="Groupe_2158">
                          <g id="Groupe_2157">
                            <g id="Groupe_2156-2">
                              <path id="Tracé_352" d="M364.854,142.417c-13.866-9.257-31.952-14.857-51.74-14.857s-37.874,5.6-51.741,14.857c13.79-4.585,29.913-7.429,51.741-7.429S351.064,137.832,364.854,142.417Z" transform="translate(-261.372 -127.56)" fill="#0af" fill-rule="evenodd"/>
                            </g>
                          </g>
                        </g>
                      </g>
                    </g>
                  </g>
                </g>
              </g>
              <g id="Groupe_2166" transform="translate(0.946 19.264)">
                <g id="Groupe_2165">
                  <path id="Tracé_353" d="M357.364,188.219c-1.017,0-1.538.826-1.674,1.833-.15,1.114-.733,4.976-.863,5.958-.079.588-.123,1.2-.693,1.453s-1.263-.134-1.854-.637l-9.351-7.961a2.646,2.646,0,0,0-1.738-.645,2.522,2.522,0,0,0-2.593,2.827v12.437a1.5,1.5,0,0,0,1.5,1.587,1.581,1.581,0,0,0,1.613-1.473s.963-5.928,1.081-6.588c.137-.768.258-1.371,1-1.6.672-.209,1.306.181,2.253,1.009s8.819,7.937,8.819,7.937a2.538,2.538,0,0,0,1.9.715c.776,0,2.183-.317,2.183-2.684V190A1.592,1.592,0,0,0,357.364,188.219Z" transform="translate(-314.504 -187.815)" fill="#0af"/>
                  <path id="Tracé_354" d="M529.757,200.629c-6.874,1.479-14.739-.1-14.739-4.963,0-3.675,3.409-5.169,6.094-5.386,2.817-.225,5.019.367,6.152,1.542.707.736.511,1.738-.88,1.82-1.28.077-3.68.152-5.68.229-1.135.042-1.741.648-1.741,1.465,0,.647.488,1.389,1.793,1.395,1.871.009,6.623.038,8.98.046,1.558,0,2.324-.869,2.324-2.661,0-2.837-2.572-7.143-10.1-7.143-6.817,0-11.752,3.4-11.752,8.948,0,7.874,11.588,10.277,20.077,7.35.8-.275,1.534-.854,1.3-1.753C531.384,200.72,530.734,200.416,529.757,200.629Z" transform="translate(-430.473 -186.972)" fill="#0af"/>
                  <path id="Tracé_355" d="M283.836,200.629c-6.873,1.479-14.737-.1-14.737-4.963,0-3.675,3.406-5.169,6.093-5.386,2.815-.225,5.017.367,6.152,1.542.708.736.511,1.738-.879,1.82-1.28.077-3.682.152-5.68.229-1.135.042-1.742.648-1.742,1.465,0,.647.488,1.389,1.792,1.395,1.872.009,6.625.038,8.983.046,1.556,0,2.325-.869,2.325-2.661,0-2.837-2.573-7.143-10.1-7.143-6.818,0-11.752,3.4-11.752,8.948,0,7.874,11.588,10.277,20.077,7.35.8-.275,1.533-.854,1.3-1.753C285.463,200.72,284.813,200.416,283.836,200.629Z" transform="translate(-264.291 -186.972)" fill="#0af"/>
                  <g id="Groupe_2164" transform="translate(72.649)">
                    <path id="Tracé_356" d="M488.754,203.668c.148,4.292.555,7.853.666,9.1.146,1.611.979,2.069,1.816,2.069.8,0,1.652-.42,1.8-2.055.124-1.376.529-5.623.73-9.823a.252.252,0,0,0-.318-.281l-4.473.725A.265.265,0,0,0,488.754,203.668Z" transform="translate(-488.622 -197.581)" fill="#0af"/>
                    <path id="Tracé_357" d="M490.974,186.972a2.471,2.471,0,0,0-2.626,2.594c0,.183.022.691.053,1.321a.272.272,0,0,0,.306.257l4.669-.758a.272.272,0,0,0,.227-.257c.01-.219.018-.445.02-.551A2.51,2.51,0,0,0,490.974,186.972Z" transform="translate(-488.347 -186.972)" fill="#0af"/>
                  </g>
                  <path id="Tracé_358" d="M429.885,193.817c-1.556,0-6.359.037-9.434.045-1.491,0-1.864.8-1.864,1.467,0,.577.4,1.323,1.792,1.4,2.12.112,4.817.237,6.061.3,1.676.086,1.7.948,1.133,1.686-1.136,1.479-3.907,2.45-6.779,2.45-3.755,0-7.885-2.136-7.885-5.521,0-3.174,3.536-6.674,14.041-5.2.922.13,1.832-.037,2.059-.89.241-.908-.351-1.493-1.544-1.807a25.33,25.33,0,0,0-6.622-.774c-7.071,0-12.739,3.376-12.739,8.829,0,5.821,5.65,8.669,12.688,8.669,7.865,0,11.7-4.28,11.7-8.021C432.487,194.545,431.519,193.817,429.885,193.817Z" transform="translate(-361.473 -186.972)" fill="#0af"/>
                </g>
              </g>
            </g>
          </g>
        </g>
      </g>
    </g>
  </g>
</svg>
