<?xml version="1.0" encoding="utf-8"?>
<!-- Generator: Adobe Illustrator 25.0.0, SVG Export Plug-In . SVG Version: 6.00 Build 0)  -->
<svg version="1.1" id="Calque_1" xmlns="http://www.w3.org/2000/svg" xmlns:xlink="http://www.w3.org/1999/xlink" x="0px" y="0px"
	 viewBox="0 0 379 320" style="enable-background:new 0 0 379 320;" xml:space="preserve">
<style type="text/css">
	.st0{fill:#F0EFEF;}
	.st1{fill:#FFFFFF;}
	.st2{enable-background:new    ;}
	.st3{fill:#6AD089;}
	.st4{fill:url(#Tracé_203_1_);}
	.st5{fill:#9FE1B2;}
	.st6{fill:#E0E2E5;}
	.st7{fill:#46BF68;}
</style>
<g>
	<g id="Groupe_1146" transform="translate(174.559 158.35)">
		<path id="Tracé_168" class="st0" d="M185.8-42.3l-110,110C53.4,90.2,17,90.2-5.4,67.8S-27.9,9-5.4-13.5l110-110
			c22.4-22.4,58.8-22.4,81.2,0S208.3-64.7,185.8-42.3L185.8-42.3"/>
	</g>
</g>
<g>
	<g id="Groupe_1149">
		<path id="Tracé_169" class="st0" d="M146,106.4l-77.2,77.2c-15.7,15.7-41.3,15.7-57,0s-15.7-41.3,0-57L89,49.3
			c15.7-15.7,41.3-15.7,57,0S161.8,90.6,146,106.4"/>
	</g>
</g>
<g>
	<g id="Groupe_1152">
		<path id="Tracé_170" class="st0" d="M14.4,232.3l43.8-43.8c8.9-8.9,23.4-9,32.4-0.1s9,23.4,0.1,32.4c0,0,0,0-0.1,0.1l-43.8,43.8
			c-8.9,8.9-23.4,8.9-32.4-0.1C5.5,255.7,5.5,241.3,14.4,232.3"/>
	</g>
</g>
<g transform="matrix(1, 0, 0, 1, 493, 313)">
	<path id="Tracé_202-2" class="st1" d="M-434.1-281.1h260.8c3.8,0,6.9,3.1,6.9,6.9v243.4c0,3.8-3.1,6.9-6.9,6.9h-260.8
		c-3.8,0-6.9-3.1-6.9-6.9v-243.4C-441-278-437.9-281.1-434.1-281.1z"/>
</g>
<g id="Groupe_1251">
	<g id="Groupe_1196" transform="translate(493 175)">
		<g>
			<g>
				<g>
					<g id="Groupe_1195">
						<g class="st2">
							<path class="st3" d="M-379,40l2.9-5.5h2.2l-4,7.4v4.7h-2V42l-4-7.5h2.2L-379,40z"/>
							<path class="st3" d="M-365.5,46.6h-6.9V34.5h6.9v1.7h-4.9v3.3h4.6v1.7h-4.6V45h4.9V46.6z"/>
							<path class="st3" d="M-357.7,46.6l-3.5-10.1h-0.1c0.1,1.5,0.1,2.9,0.1,4.2v5.9h-1.8V34.5h2.8l3.4,9.7l0,0l3.5-9.7h2.8v12.1
								h-1.9v-6c0-0.6,0-1.4,0-2.4s0.1-1.6,0.1-1.8h-0.1l-3.6,10.1L-357.7,46.6L-357.7,46.6z"/>
							<path class="st3" d="M-332,40.5c0,2-0.5,3.5-1.5,4.6s-2.4,1.6-4.2,1.6c-1.8,0-3.2-0.5-4.2-1.6s-1.5-2.6-1.5-4.6
								s0.5-3.5,1.5-4.6s2.4-1.6,4.2-1.6c1.8,0,3.2,0.5,4.2,1.6S-332,38.6-332,40.5z M-341.3,40.5c0,1.5,0.3,2.6,0.9,3.4
								c0.6,0.8,1.5,1.2,2.7,1.2s2.1-0.4,2.7-1.1c0.6-0.8,0.9-1.9,0.9-3.4s-0.3-2.6-0.9-3.4c-0.6-0.8-1.5-1.2-2.7-1.2
								s-2.1,0.4-2.7,1.2C-341,37.9-341.3,39.1-341.3,40.5z"/>
							<path class="st3" d="M-321.4,38.2c0,1.3-0.4,2.2-1.2,2.9c-0.8,0.7-2,1-3.5,1h-1.3v4.5h-2V34.5h3.5c1.5,0,2.7,0.3,3.4,0.9
								C-321.8,36-321.4,37-321.4,38.2z M-327.4,40.4h1.1c1,0,1.8-0.2,2.2-0.5s0.7-0.9,0.7-1.7c0-0.7-0.2-1.2-0.6-1.6
								s-1.1-0.5-2-0.5h-1.4L-327.4,40.4L-327.4,40.4z"/>
							<path class="st3" d="M-314.8,46.6h-2V36.2h-3.6v-1.7h9.1v1.7h-3.6v10.4H-314.8z"/>
							<path class="st3" d="M-309.3,46.6V34.5h2v12.1H-309.3z"/>
							<path class="st3" d="M-298.9,46.6l-3.5-10.1h-0.1c0.1,1.5,0.1,2.9,0.1,4.2v5.9h-1.8V34.5h2.8l3.4,9.7l0,0l3.5-9.7h2.8v12.1
								h-1.9v-6c0-0.6,0-1.4,0-2.4s0.1-1.6,0.1-1.8h-0.1l-3.6,10.1L-298.9,46.6L-298.9,46.6z"/>
							<path class="st3" d="M-288.5,46.6V34.5h2v12.1H-288.5z"/>
							<path class="st3" d="M-275.6,46.6h-8.7v-1.4l6.1-9.1h-6v-1.7h8.4v1.4l-6.1,9h6.3L-275.6,46.6L-275.6,46.6z"/>
							<path class="st3" d="M-266,46.6l-1.2-3.4h-4.6l-1.2,3.4h-2.1l4.5-12.2h2.2l4.5,12.2H-266z M-267.7,41.5l-1.1-3.3
								c-0.1-0.2-0.2-0.6-0.3-1s-0.2-0.8-0.3-1c-0.1,0.7-0.4,1.4-0.7,2.2l-1.1,3.2h3.5V41.5z"/>
							<path class="st3" d="M-258.1,46.6h-2V36.2h-3.6v-1.7h9.1v1.7h-3.6v10.4H-258.1z"/>
							<path class="st3" d="M-252.6,46.6V34.5h2v12.1H-252.6z"/>
							<path class="st3" d="M-236.7,40.5c0,2-0.5,3.5-1.5,4.6s-2.4,1.6-4.2,1.6s-3.2-0.5-4.2-1.6s-1.5-2.6-1.5-4.6s0.5-3.5,1.5-4.6
								s2.4-1.6,4.2-1.6s3.2,0.5,4.2,1.6S-236.7,38.6-236.7,40.5z M-245.9,40.5c0,1.5,0.3,2.6,0.9,3.4c0.6,0.8,1.5,1.2,2.7,1.2
								s2.1-0.4,2.7-1.1s0.9-1.9,0.9-3.4s-0.3-2.6-0.9-3.4c-0.6-0.8-1.5-1.2-2.7-1.2s-2.1,0.4-2.7,1.2
								C-245.6,37.9-245.9,39.1-245.9,40.5z"/>
							<path class="st3" d="M-224,46.6h-2.4l-6-9.7h-0.1v0.5c0.1,1,0.1,2,0.1,2.8v6.3h-1.8v-12h2.4l6,9.6l0,0c0-0.1,0-0.6-0.1-1.4
								s0-1.4,0-1.9v-6.4h1.8v12.2C-224.1,46.6-224,46.6-224,46.6z"/>
						</g>
					</g>
				</g>
			</g>
		</g>
	</g>
	<g id="app-marketplace" transform="translate(639.999 392)">
		<g id="Calque_2_1_">
			<g id="Calque_1_1_">
				
					<linearGradient id="Tracé_203_1_" gradientUnits="userSpaceOnUse" x1="-2497.6204" y1="-665.1401" x2="-2496.9834" y2="-665.5731" gradientTransform="matrix(93.507 0 0 -93.507 233064.25 -62473.6953)">
					<stop  offset="0" style="stop-color:#71DE92"/>
					<stop  offset="0.83" style="stop-color:#11BA46"/>
					<stop  offset="1" style="stop-color:#0FA83F"/>
				</linearGradient>
				<path id="Tracé_203" class="st4" d="M-399.5-285.9v69.8H-493v-93.5h70.4"/>
				<path id="Tracé_204" class="st5" d="M-399.5-285.9h-23.1v-23.7L-399.5-285.9z"/>
				<ellipse id="Ellipse_21" class="st1" cx="-446.2" cy="-263.4" rx="29.1" ry="29.1"/>
				<path id="Tracé_205" class="st6" d="M-425.1-283.1c0,0-19.9-4.7-32.8,7c-17.4,16-10.1,31.8-10.1,31.8
					c-10.8-11.8-10-30.1,1.8-40.9c11.8-10.8,30.1-10,40.9,1.8C-425.3-283.3-425.2-283.2-425.1-283.1L-425.1-283.1z"/>
				<rect x="-464.6" y="-270.6" class="st7" width="5.5" height="20.9"/>
				<rect x="-454.3" y="-259.1" class="st7" width="5.5" height="9.4"/>
				<rect x="-444" y="-278.8" class="st7" width="5.5" height="29.1"/>
				<rect x="-433.6" y="-270.8" class="st7" width="5.5" height="21.1"/>
			</g>
		</g>
	</g>
	<polygon class="st3" points="202.3,248.5 190.8,260.1 190.8,239.8 188.8,239.8 188.8,260.1 177.3,248.5 175.8,249.9 189.8,263.9 
		203.8,249.9 	"/>
</g>
</svg>
