<?xml version="1.0" encoding="utf-8"?>
<!-- Generator: Adobe Illustrator 25.0.0, SVG Export Plug-In . SVG Version: 6.00 Build 0)  -->
<svg version="1.1" id="Calque_1" xmlns="http://www.w3.org/2000/svg" xmlns:xlink="http://www.w3.org/1999/xlink" x="0px" y="0px"
	 viewBox="0 0 379 320" style="enable-background:new 0 0 379 320;" xml:space="preserve">
<style type="text/css">
	.st0{fill:#F0EFEF;}
	.st1{fill:none;}
	.st2{clip-path:url(#SVGID_2_);}
	.st3{clip-path:url(#SVGID_4_);}
	.st4{fill:#FFFFFF;}
	.st5{fill:#00A2E1;}
	.st6{enable-background:new    ;}
	.st7{fill:url(#Tracé_206_1_);}
	.st8{fill:#E0E2E5;}
	.st9{fill:url(#Tracé_208_1_);}
</style>
<g id="img-app-marketplace" transform="translate(-928 -313)">
	<path id="Tracé_174" class="st0" d="M1150.8,392.4l41.9-41.9c26.1-25.7,68.1-25.4,93.8,0.7c25.4,25.8,25.4,67.3,0,93.1
		l-127.1,127.1c-25.9,25.9-67.9,25.9-93.8,0l0,0l0,0c-25.9-25.9-25.9-67.9,0-93.8L1150.8,392.4"/>
	<rect id="Rectangle_832" x="1046.3" y="331" class="st1" width="259.7" height="259.8"/>
	<g id="Groupe_1181" transform="translate(493 175)">
		<g>
			<g>
				<g>
					<defs>
						<rect id="SVGID_1_" x="715.3" y="318.7" width="89.6" height="89.6"/>
					</defs>
					<clipPath id="SVGID_2_">
						<use xlink:href="#SVGID_1_"  style="overflow:visible;"/>
					</clipPath>
					<g id="Groupe_1180" class="st2">
						<path id="Tracé_175" class="st0" d="M722,369.2l43.8-43.8c8.9-8.9,23.4-8.9,32.4,0.1c8.9,8.9,8.9,23.4,0,32.3l-43.8,43.8
							c-8.9,8.9-23.4,8.9-32.4-0.1C713.1,392.6,713.1,378.1,722,369.2"/>
					</g>
				</g>
			</g>
		</g>
	</g>
	<g id="Groupe_1184" transform="translate(493 175)">
		<g>
			<g>
				<g>
					<defs>
						<rect id="SVGID_3_" x="436.2" y="295" width="89.6" height="89.6"/>
					</defs>
					<clipPath id="SVGID_4_">
						<use xlink:href="#SVGID_3_"  style="overflow:visible;"/>
					</clipPath>
					<g id="Groupe_1183" class="st3">
						<path id="Tracé_176" class="st0" d="M519.1,334l-43.8,43.8c-9,8.9-23.5,8.8-32.4-0.2c-8.8-8.9-8.8-23.3,0-32.2l43.8-43.8
							c8.9-8.9,23.4-8.9,32.4,0C528,310.6,528,325.1,519.1,334"/>
					</g>
				</g>
			</g>
		</g>
	</g>
	<g transform="matrix(1, 0, 0, 1, 493, 313)">
		<path id="Tracé_202-2" class="st4" d="M493.9,31.9h260.8c3.8,0,6.9,3.1,6.9,6.9v243.4c0,3.8-3.1,6.9-6.9,6.9H493.9
			c-3.8,0-6.9-3.1-6.9-6.9V38.9C487,35,490.1,31.9,493.9,31.9z"/>
	</g>
	<polygon class="st5" points="1128.3,561.3 1116.7,572.9 1116.7,552.5 1114.8,552.5 1114.8,572.9 1103.1,561.3 1101.8,562.6 
		1115.7,576.5 1129.6,562.6 	"/>
	<g id="Groupe_1199" transform="translate(493 175)">
		<g>
			<g>
				<g>
					<g id="Groupe_1198">
						<g class="st6">
							<path class="st5" d="M548.4,352.8l2.9-5.5h2.2l-4,7.4v4.7h-2v-4.6l-4-7.5h2.2L548.4,352.8z"/>
							<path class="st5" d="M561.9,359.4H555v-12.1h6.9v1.7H557v3.3h4.6v1.7H557v3.8h4.9V359.4z"/>
							<path class="st5" d="M569.8,359.4l-3.5-10.1h-0.1c0.1,1.5,0.1,2.9,0.1,4.2v5.9h-1.8v-12.1h2.8l3.4,9.7l0,0l3.5-9.7h2.8v12.1
								h-1.9v-6c0-0.6,0-1.4,0-2.4s0.1-1.6,0.1-1.8h-0.1l-3.6,10.1L569.8,359.4L569.8,359.4z"/>
							<path class="st5" d="M589.9,359.4l-3.5-10.1h-0.1c0.1,1.5,0.1,2.9,0.1,4.2v5.9h-1.8v-12.1h2.8l3.4,9.7l0,0l3.5-9.7h2.8v12.1
								h-1.9v-6c0-0.6,0-1.4,0-2.4s0.1-1.6,0.1-1.8h-0.1l-3.6,10.1L589.9,359.4L589.9,359.4z"/>
							<path class="st5" d="M607.9,359.4l-1.2-3.4H602l-1.2,3.4h-2.1l4.5-12.2h2.2l4.5,12.2H607.9z M606.2,354.3L605,351
								c-0.1-0.2-0.2-0.6-0.3-1c-0.1-0.5-0.2-0.8-0.3-1c-0.1,0.7-0.4,1.4-0.7,2.2l-1.1,3.2h3.6V354.3z"/>
							<path class="st5" d="M613.6,354.5v4.8h-2v-12.1h3.4c1.6,0,2.7,0.3,3.5,0.9s1.1,1.5,1.1,2.7c0,1.5-0.8,2.6-2.4,3.2l3.4,5.4
								h-2.3l-2.9-4.8h-1.8V354.5z M613.6,352.9h1.4c0.9,0,1.6-0.2,2-0.5s0.6-0.9,0.6-1.5c0-0.7-0.2-1.2-0.7-1.5s-1.1-0.4-2-0.4
								h-1.3V352.9z"/>
							<path class="st5" d="M631.7,359.4h-2.3l-3.8-5.5l-1.2,1v4.5h-2v-12.1h2v5.8c0.5-0.7,1.1-1.3,1.6-1.9l3.3-3.9h2.3
								c-2.1,2.5-3.6,4.3-4.6,5.3L631.7,359.4z"/>
							<path class="st5" d="M640.2,359.4h-6.9v-12.1h6.9v1.7h-4.9v3.3h4.6v1.7h-4.6v3.8h4.9V359.4z"/>
							<path class="st5" d="M647,359.4h-2V349h-3.6v-1.7h9.1v1.7H647V359.4z"/>
							<path class="st5" d="M660.5,350.9c0,1.3-0.4,2.2-1.2,2.9c-0.8,0.7-2,1-3.5,1h-1.3v4.5h-2v-12.1h3.5c1.5,0,2.7,0.3,3.4,0.9
								C660.1,348.8,660.5,349.7,660.5,350.9z M654.4,353.2h1.1c1,0,1.8-0.2,2.2-0.5c0.5-0.4,0.7-0.9,0.7-1.7c0-0.7-0.2-1.2-0.6-1.6
								s-1.1-0.5-2-0.5h-1.4V353.2z"/>
							<path class="st5" d="M662.9,359.4v-12.1h2v10.4h5.1v1.7H662.9z"/>
							<path class="st5" d="M679.6,359.4l-1.2-3.4h-4.6l-1.2,3.4h-2.1l4.5-12.2h2.2l4.5,12.2H679.6z M677.9,354.3l-1.1-3.3
								c-0.1-0.2-0.2-0.6-0.3-1s-0.2-0.8-0.3-1c-0.1,0.7-0.4,1.4-0.7,2.2l-1.1,3.2h3.5L677.9,354.3L677.9,354.3z"/>
							<path class="st5" d="M688.5,348.8c-1.1,0-2,0.4-2.7,1.2c-0.7,0.8-1,1.9-1,3.3c0,1.5,0.3,2.6,0.9,3.4s1.5,1.1,2.7,1.1
								c0.5,0,1-0.1,1.5-0.2s1-0.2,1.5-0.4v1.7c-1,0.4-2,0.5-3.2,0.5c-1.8,0-3.1-0.5-4.1-1.6s-1.4-2.6-1.4-4.6
								c0-1.3,0.2-2.4,0.7-3.3s1.1-1.7,2-2.2s1.9-0.8,3.1-0.8c1.2,0,2.4,0.3,3.4,0.8l-0.7,1.7c-0.4-0.2-0.8-0.4-1.3-0.5
								C689.5,348.8,689,348.8,688.5,348.8z"/>
							<path class="st5" d="M701,359.4h-6.9v-12.1h6.9v1.7h-4.9v3.3h4.6v1.7h-4.6v3.8h4.9V359.4z"/>
						</g>
					</g>
				</g>
			</g>
		</g>
	</g>
	<g id="Calque_1_1_">
		
			<linearGradient id="Tracé_206_1_" gradientUnits="userSpaceOnUse" x1="2206.6638" y1="40.1982" x2="2207.3936" y2="39.7242" gradientTransform="matrix(88.976 0 0 -104.5828 -195258.375 4611.2466)">
			<stop  offset="0" style="stop-color:#ABE7FF"/>
			<stop  offset="0.21" style="stop-color:#5CD0FF"/>
			<stop  offset="0.91" style="stop-color:#13A4DF"/>
			<stop  offset="1" style="stop-color:#1099D1"/>
		</linearGradient>
		<path id="Tracé_206" class="st7" d="M1161.8,432.5c0,24.6-44.5,59.9-44.5,59.9s-44.5-35.3-44.5-59.9
			c-0.1-24.6,19.7-44.6,44.3-44.7c24.6-0.1,44.6,19.7,44.7,44.3C1161.8,432.2,1161.8,432.3,1161.8,432.5z"/>
		<ellipse id="Ellipse_22" class="st4" cx="1117.3" cy="431.3" rx="25.1" ry="25.1"/>
		<path id="Tracé_207" class="st8" d="M1136,414.4c0,0-17.3-4-28.4,6.1c-15.1,13.9-8.8,27.6-8.8,27.6c-9.3-10.3-8.5-26.2,1.8-35.5
			S1126.7,404.1,1136,414.4L1136,414.4z"/>
		
			<linearGradient id="Tracé_208_1_" gradientUnits="userSpaceOnUse" x1="2221.7915" y1="35.8345" x2="2220.6694" y2="36.5185" gradientTransform="matrix(28.6295 0 0 -32.7181 -62467.7852 1620.0726)">
			<stop  offset="0" style="stop-color:#66D4FF"/>
			<stop  offset="1" style="stop-color:#11A3DE"/>
		</linearGradient>
		<path id="Tracé_208" class="st9" d="M1117.5,447.6c-9,0-16.4-7.3-16.4-16.3s7.3-16.4,16.3-16.4c4.7,0,9.2,2,12.3,5.5l-3.6,3.2
			c-4.2-4.7-11.5-5.2-16.2-1c-0.8,0.7-1.5,1.6-2.1,2.5h11.6v4.9h-13.2c0,0.4-0.1,0.8-0.1,1.2c0,0.6,0,1.1,0.1,1.7h13.2v4.9h-11.2
			c3.6,5.2,10.8,6.5,16,2.8c0.5-0.3,0.9-0.7,1.3-1.1l3.4,3.5C1125.7,446,1121.7,447.6,1117.5,447.6z"/>
	</g>
</g>
</svg>
