<svg xmlns="http://www.w3.org/2000/svg" width="31.712" height="20.169" viewBox="0 0 31.712 20.169">
  <g id="picto-compte_entreprise" transform="translate(0.6 0.6)">
    <g id="Groupe_1821">
      <g id="Groupe_2061">
        <path id="Tracé_262" d="M13.572,20.462H1.5V1.5H5.113V11.936l5.338-4.029a.43.43,0,0,1,.691.334l.04,3.993h.194l5.411-4.085a.632.632,0,0,1,1.014.491l.017,2.576" transform="translate(-1.5 -1.5)" fill="none" stroke="#000" stroke-miterlimit="10" stroke-width="1.2"/>
      </g>
    </g>
    <g id="Groupe_1823" transform="translate(14.072 1.746)">
      <g id="Groupe_2060" transform="translate(0 0)">
        <path id="Tracé_263" d="M57.955,24.58a15.331,15.331,0,0,0-1.779-5.862,5.311,5.311,0,0,0-1.773-1.8c-1.775-1.1-7.533-.963-9.266,0a6.066,6.066,0,0,0-2.53,3.411,24.366,24.366,0,0,0-1.019,4.253ZM52.991,10.519A3.194,3.194,0,1,1,49.8,7.357,3.178,3.178,0,0,1,52.991,10.519Z" transform="translate(-41.587 -7.357)" fill="none" stroke="#000" stroke-miterlimit="10" stroke-width="1.2"/>
        <line id="Ligne_290" y1="4.388" transform="translate(4.927 12.956)" fill="none" stroke="#000" stroke-miterlimit="10" stroke-width="1.2"/>
        <line id="Ligne_291" y1="4.388" transform="translate(11.406 12.956)" fill="none" stroke="#000" stroke-miterlimit="10" stroke-width="1.2"/>
      </g>
    </g>
  </g>
</svg>
