<svg xmlns="http://www.w3.org/2000/svg" xmlns:xlink="http://www.w3.org/1999/xlink" width="77.629" height="62.972" viewBox="0 0 77.629 62.972">
  <defs>
    <linearGradient id="linear-gradient" x1="0.039" y1="0.501" x2="1.172" y2="0.522" gradientUnits="objectBoundingBox">
      <stop offset="0" stop-color="#6cd188"/>
      <stop offset="0.26" stop-color="#2cb5bc"/>
      <stop offset="1" stop-color="#00a2e1"/>
    </linearGradient>
    <linearGradient id="linear-gradient-2" x1="-14.394" y1="22.952" x2="-14.358" y2="22.952" gradientUnits="objectBoundingBox">
      <stop offset="0" stop-color="#00a2e1"/>
      <stop offset="1" stop-color="#6cd188"/>
    </linearGradient>
    <clipPath id="clip-path">
      <path id="Tracé_171" data-name="Tracé 171" d="M364.813,899.238v47.008h45.468V886.433h-32.8" fill="url(#linear-gradient)"/>
    </clipPath>
    <clipPath id="clip-path-2">
      <path id="Tracé_188" data-name="Tracé 188" d="M400.154,916.011a9.747,9.747,0,1,0,9.746-9.746,9.746,9.746,0,0,0-9.746,9.746" fill="url(#linear-gradient-2)"/>
    </clipPath>
    <linearGradient id="linear-gradient-4" x1="0.968" y1="0.514" x2="0.143" y2="0.506" gradientUnits="objectBoundingBox">
      <stop offset="0" stop-color="#6cd188"/>
      <stop offset="1" stop-color="#11a3de"/>
    </linearGradient>
  </defs>
  <g id="picto-REF-E" transform="translate(-856.282 -1058.274)">
    <g id="Groupe_1162" data-name="Groupe 1162" transform="translate(493 175)" clip-path="url(#clip-path)">
      <rect id="Rectangle_831" data-name="Rectangle 831" width="75.083" height="71.612" transform="translate(336.657 926.422) rotate(-54.851)" fill="url(#linear-gradient)"/>
    </g>
    <path id="Tracé_172" data-name="Tracé 172" d="M440.911,916.031s-13.861,18.962-30.96,18.962-30.96-18.962-30.96-18.962,13.861-18.961,30.96-18.961,30.96,18.961,30.96,18.961" transform="translate(493 175)" fill="#fff"/>
    <path id="Tracé_173" data-name="Tracé 173" d="M440.861,916.031S427,934.992,409.9,934.992V897.07c17.1,0,30.96,18.961,30.96,18.961" transform="translate(493 175)" fill="#f0efef"/>
    <path id="Tracé_187" data-name="Tracé 187" d="M363.282,899.238h14.2V883.274Z" transform="translate(493 175)" fill="#fff"/>
    <g id="Groupe_1207" data-name="Groupe 1207" transform="translate(493 175)" clip-path="url(#clip-path-2)">
      <rect id="Rectangle_854" data-name="Rectangle 854" width="27.52" height="27.52" transform="translate(390.473 917.137) rotate(-48.318)" fill="url(#linear-gradient-4)"/>
    </g>
    <path id="Tracé_189" data-name="Tracé 189" d="M396.789,910.86l13.112,5.151L403.345,904.9Z" transform="translate(493 175)" fill="#fff"/>
  </g>
</svg>
