<svg xmlns="http://www.w3.org/2000/svg" xmlns:xlink="http://www.w3.org/1999/xlink" width="57" height="32" viewBox="0 0 57 32">
  <defs>
    <clipPath id="clip-path">
      <rect id="Rectangle_914" data-name="Rectangle 914" width="45.947" height="24.526" fill="#636567"/>
    </clipPath>
  </defs>
  <g id="picto-mode-de-paiement-SEPA" transform="translate(-690 -629)">
    <rect id="Rectangle_920" data-name="Rectangle 920" width="57" height="32" transform="translate(690 629)" fill="transparent"/>
    <g id="Picto-mode-de-paiement-SEPA-2" data-name="Picto-mode-de-paiement-SEPA" transform="translate(696 633)">
      <g id="Groupe_1359" data-name="Groupe 1359" transform="translate(0 0)" clip-path="url(#clip-path)">
        <path id="Tracé_211" data-name="Tracé 211" d="M12.263,0A12.263,12.263,0,1,0,24.526,12.263,12.264,12.264,0,0,0,12.263,0m5.321,8.574a.778.778,0,0,1-1.1-.062A5.275,5.275,0,0,0,7.7,9.912h6.12a.779.779,0,1,1,0,1.558H7.3c-.016.181-.028.357-.028.539a4.945,4.945,0,0,0,.058.782h6.493a.782.782,0,1,1,0,1.563h-6a5.275,5.275,0,0,0,8.342,1.485.779.779,0,1,1,1.07,1.133,6.827,6.827,0,1,1,.419-9.5.78.78,0,0,1-.068,1.1" transform="translate(0 0)" fill="#636567"/>
        <path id="Tracé_212" data-name="Tracé 212" d="M42.8,12.2,31.09,23.912l-2.007-2.006,8.3-8.29H23.5V10.781H37.38l-8.3-8.29L31.09.484Z" transform="translate(3.144 0.065)" fill="#636567"/>
      </g>
    </g>
  </g>
</svg>
